<svg id="aparat" xmlns="http://www.w3.org/2000/svg" width="27" height="27" viewBox="0 0 27 27">
  <path id="Path_1925" data-name="Path 1925" d="M179.761,142.41l-2.429-.631a4.108,4.108,0,0,0-5.023,2.916l-.62,2.3A12.587,12.587,0,0,1,179.761,142.41Z" transform="translate(-168.335 -141.642)" fill="#aaa095"/>
  <path id="Path_1926" data-name="Path 1926" d="M170.261,151.8l-.6,2.251a4.107,4.107,0,0,0,2.916,5.022l2.324.62A12.575,12.575,0,0,1,170.261,151.8Z" transform="translate(-169.525 -136.063)" fill="#aaa095"/>
  <path id="Path_1927" data-name="Path 1927" d="M185.9,144.454l-2.617-.694a12.581,12.581,0,0,1,4.813,8.423l.719-2.717A4.107,4.107,0,0,0,185.9,144.454Z" transform="translate(-161.954 -140.479)" fill="#aaa095"/>
  <path id="Path_1928" data-name="Path 1928" d="M179.521,160.28l2.5.675a4.105,4.105,0,0,0,5.023-2.916l.706-2.655A12.574,12.574,0,0,1,179.521,160.28Z" transform="translate(-164.022 -134.095)" fill="#aaa095"/>
  <path id="Path_1930" data-name="Path 1930" d="M182.4,142.778a11.737,11.737,0,1,0,11.743,11.737A11.74,11.74,0,0,0,182.4,142.778Zm-6.65,5.857h0a3.352,3.352,0,1,1,.515,2.512,3.353,3.353,0,0,1-.515-2.512Zm4.878,10.136a3.352,3.352,0,1,1-.515-2.516,3.352,3.352,0,0,1,.515,2.516Zm1.423-2.713a1.489,1.489,0,1,1,1.121-.231,1.489,1.489,0,0,1-1.121.231Zm7,4.33a3.35,3.35,0,1,1-.515-2.514,3.353,3.353,0,0,1,.515,2.514Zm.294-6.722a3.342,3.342,0,1,1,1.411-2.13,3.346,3.346,0,0,1-1.411,2.13Z" transform="translate(-168.901 -141.018)" fill="#aaa095"/>
</svg>
