<svg xmlns="http://www.w3.org/2000/svg" width="28" height="28" viewBox="0 0 28 28">
  <g id="bale" transform="translate(0.283 0.5)">
    <path id="Subtraction_1" data-name="Subtraction 1" d="M13.5,27a13.6,13.6,0,0,1-2.721-.274,13.429,13.429,0,0,1-4.827-2.031,13.539,13.539,0,0,1-4.891-5.94,13.412,13.412,0,0,1-.787-2.534A13.585,13.585,0,0,1,0,13.5V1.536A1.482,1.482,0,0,1,.461.452,1.521,1.521,0,0,1,.943.142,1.483,1.483,0,0,1,2.357.3L5.605,2.548A13.438,13.438,0,0,1,13.5,0a13.594,13.594,0,0,1,2.721.274,13.418,13.418,0,0,1,4.827,2.031,13.537,13.537,0,0,1,4.891,5.94,13.436,13.436,0,0,1,.787,2.534,13.629,13.629,0,0,1,0,5.441,13.428,13.428,0,0,1-2.031,4.827,13.539,13.539,0,0,1-5.939,4.891,13.444,13.444,0,0,1-2.534.787A13.6,13.6,0,0,1,13.5,27ZM7.492,10.876a2.637,2.637,0,0,0-1.864,4.5L9.858,19.6a2.538,2.538,0,0,0,3.587,0l7.876-7.876a2.636,2.636,0,1,0-3.728-3.729l-5.945,5.945L9.356,11.648A2.618,2.618,0,0,0,7.492,10.876Z" transform="translate(0.217 0)" fill="#aaa095" stroke="rgba(0,0,0,0)" stroke-width="1"/>
  </g>
</svg>
