<svg xmlns="http://www.w3.org/2000/svg" width="28.001" height="28" viewBox="0 0 28.001 28">
  <g id="eta" transform="translate(0.783 0.5)">
    <path id="Subtraction_2" data-name="Subtraction 2" d="M20,27H7a7.008,7.008,0,0,1-7-7V7A7.008,7.008,0,0,1,7,0H20a7.008,7.008,0,0,1,7,7v4.742a40.112,40.112,0,0,0-5.081,4.586c-.837.83-1.5,1.485-1.811,1.746a8.362,8.362,0,0,1-4.516,1.892,3.052,3.052,0,0,1-2.081-.752.018.018,0,0,0-.012,0,.021.021,0,0,0-.013,0,3.819,3.819,0,0,0-1.2,3.24.008.008,0,0,1-.007.009c-1.9-.711-3.816-2.543-3.539-4.885a.038.038,0,0,0-.021-.039,3.387,3.387,0,0,1-1.77-2.774c-.144-1.718.908-3.448,2.962-4.872a10.866,10.866,0,0,1,5.949-2.147,5.256,5.256,0,0,1,3.723,1.422,1.466,1.466,0,0,1,.581,1.025,1.286,1.286,0,0,1-.54.91,6.752,6.752,0,0,1-4.64,1.775,8.806,8.806,0,0,1-2.01-.244,1.454,1.454,0,0,1-.988-.769,2.466,2.466,0,0,1-.135-1.811.034.034,0,0,0,0-.031.036.036,0,0,0-.029-.016l-.014,0a3.844,3.844,0,0,0-2.228,2.433,3.006,3.006,0,0,0,.858,2.65,4.8,4.8,0,0,0-.828,3.872,3.659,3.659,0,0,0,1.83,2.411h0s.006,0,.007,0c.285-2.123,3.052-5.109,6.567-6s4.83-4.3,4.554-7.093c-.271-2.757-1.652-6.044-6.69-6.044-2.223,0-4.712,1.208-7.007,3.4a16.327,16.327,0,0,0-4.2,6.271c-1.1,3.483-2.607,8.253,2.579,11.929a8.908,8.908,0,0,0,5.224,1.727A11.52,11.52,0,0,0,21.2,20.9c.98-1.264,1.788-2.351,2.5-3.311A20.907,20.907,0,0,1,27,13.666V20A7.008,7.008,0,0,1,20,27Z" transform="translate(-0.283 0)" fill="#aaa095" stroke="rgba(0,0,0,0)" stroke-width="1"/>
  </g>
</svg>
