<svg xmlns="http://www.w3.org/2000/svg" width="31.014" height="26.909" viewBox="0 0 31.014 26.909">
  <g id="telegram" transform="translate(-0.001 -0.001)">
    <path id="Path_29094" data-name="Path 29094" d="M28.173,34.08a3.323,3.323,0,0,1,.844-.213,1.876,1.876,0,0,1,1.593.708,1.933,1.933,0,0,1,.4,1.075v.193a6.569,6.569,0,0,1-.153.757Q28.193,47.946,25.524,59.29a1.911,1.911,0,0,1-1.266,1.394,1.884,1.884,0,0,1-1.775-.354q-2.917-2.379-5.827-4.765-2.474,1.849-4.946,3.7,1.011-3.671,2.03-7.34c.041-.165.19-.264.3-.385l9.445-9.876a1.588,1.588,0,0,0,.578-.89.906.906,0,0,0-.8-.988,1.551,1.551,0,0,0-.926.312Q14.467,44.466,6.6,48.833q-2.736-1.2-5.472-2.4A1.918,1.918,0,0,1,0,44.907v-.285a1.9,1.9,0,0,1,1.322-1.689Q14.747,38.5,28.173,34.08Z" transform="translate(0.001 -33.862)" fill="#aaa095"/>
    <path id="Path_29095" data-name="Path 29095" d="M132.44,213.606q5.155-2.872,10.32-5.726-3,3.143-6.007,6.283a1.083,1.083,0,0,0-.282.507c-.714,2.568-1.417,5.14-2.136,7.707Q133.387,217.991,132.44,213.606Z" transform="translate(-124.417 -197.338)" fill="#aaa095"/>
  </g>
</svg>
