<svg xmlns="http://www.w3.org/2000/svg" width="28" height="20" viewBox="0 0 28 20">
  <g id="youtube" transform="translate(0)">
    <path id="Path_29099" data-name="Path 29099" d="M3.251,76.273a17.789,17.789,0,0,1,4.517-.436H18.539c1.478.008,2.96-.036,4.433.115a7.961,7.961,0,0,1,2.873.754,3.557,3.557,0,0,1,1.723,2.077A14.819,14.819,0,0,1,28,83.045v5.464a15.7,15.7,0,0,1-.34,3.354,5.067,5.067,0,0,1-1.138,2.3,4.8,4.8,0,0,1-2.554,1.361,18.33,18.33,0,0,1-4.011.312H9.9a29.753,29.753,0,0,1-5.308-.248A6.184,6.184,0,0,1,2,94.514,4.291,4.291,0,0,1,.628,92.686,11.569,11.569,0,0,1,0,88.568V82.98a21.514,21.514,0,0,1,.176-3.272,4.281,4.281,0,0,1,1.059-2.332,4.541,4.541,0,0,1,2.016-1.1m8.138,5.472a.923.923,0,0,0-.606.866c-.007,2,0,4,0,6a1.29,1.29,0,0,0,.1.615.906.906,0,0,0,1.254.386q2.787-1.473,5.57-2.952a1.488,1.488,0,0,0,.582-.425.929.929,0,0,0,.017-1.042,1.067,1.067,0,0,0-.423-.355q-2.862-1.507-5.722-3.015A.94.94,0,0,0,11.389,81.745Z" transform="translate(0 -75.836)" fill="#aaa095"/>
  </g>
</svg>
